<?xml version="1.0" encoding="utf-8"?>
<svg xmlns="http://www.w3.org/2000/svg" width="195" height="152" viewBox="0 0 195 152" role="img" aria-labelledby="title desc">
  <title id="title">GK Ribeiro</title>
  <desc id="desc">Símbolo GK em azul petróleo e dourado suave com contorno preto.</desc>
  <path fill="#0E5F63" stroke="#050505" stroke-width="14" stroke-linejoin="round" paint-order="stroke fill" transform="scale(0.169271 0.169271)" d="M564.197 221.82C565.194 223.228 564.779 345.443 564.758 354.306C546.583 354.164 528.407 354.163 510.232 354.302L510.182 290.851C483.751 297.629 450.325 307.897 424.146 313.079C424.969 345.338 423.624 379.104 424.215 411.487C424.483 426.142 423.366 444.906 425.257 459.048C430.516 498.374 450.009 533.559 477.551 561.734C488.216 572.644 498.238 580.379 510.205 589.537L510.212 453.563C494.514 453.146 475.516 453.725 459.69 453.84L459.708 400.873C472.221 400.372 486.286 400.657 498.958 400.656L564.753 400.553C564.902 410.634 564.787 421.021 564.798 431.126L564.803 682.866C520.868 665.545 472.66 634.351 439.446 600.991C401.632 563.011 375.028 514.131 370.154 460.202C369.303 450.788 369.55 440.945 369.559 431.5L369.607 390.737L369.584 272.036C410.37 262.095 451.199 250.652 491.933 240.351C515.753 234.327 540.209 226.901 564.197 221.82Z"/>
  <path fill="#B9A06A" stroke="#050505" stroke-width="14" stroke-linejoin="round" paint-order="stroke fill" transform="scale(0.169271 0.169271)" d="M594.384 222.513C610.557 225.254 632.945 231.824 649.488 236.005C649.873 254.369 649.574 273.718 649.579 292.141L649.63 396.086C677.662 378.577 705.431 360.168 733.41 342.833C732.575 315.893 733.275 285.217 733.293 258.006C750.353 261.73 771.76 267.292 788.626 272.172C788.953 304.927 788.685 338.312 788.609 371.101C770.704 382.878 751.812 393.514 733.977 405.218C735.931 406.56 738.041 408.475 739.842 410.062C756.129 424.407 773.334 438.113 789.31 452.779C789.184 461.986 786.533 478.668 784.337 487.579C766.318 560.679 715.306 614.678 652.794 653.119C634.13 664.479 614.635 674.413 594.474 682.835C594.205 662.556 594.188 642.275 594.423 621.996C602.188 617.201 613.125 612.819 621.574 607.619C676.088 574.071 715.573 535.555 730.864 472.135L685.955 435.673C673.867 443.535 661.701 451.277 649.459 458.897C649.926 469.137 649.519 482.857 649.517 493.319L649.507 560.237C636.252 573.286 611.07 587.941 594.506 596.182C594.878 561.307 594.311 525.184 594.329 490.16L594.384 222.513Z"/>
</svg>
